<?xml version="1.0" encoding="UTF-8" standalone="no"?>
<!-- Created with Inkscape (http://www.inkscape.org/) -->

<svg
   width="34.125999mm"
   height="32.8983mm"
   viewBox="0 0 34.125999 32.8983"
   version="1.1"
   id="svg5"
   xml:space="preserve"
   inkscape:version="0.0.2 (b0a84865, 2022-12-01)"
   inkscape:export-filename="like_icon.svg"
   inkscape:export-xdpi="96"
   inkscape:export-ydpi="96"
   xmlns:inkscape="http://www.inkscape.org/namespaces/inkscape"
   xmlns:sodipodi="http://sodipodi.sourceforge.net/DTD/sodipodi-0.dtd"
   xmlns="http://www.w3.org/2000/svg"
   xmlns:svg="http://www.w3.org/2000/svg"><sodipodi:namedview
     id="namedview7"
     pagecolor="#ffffff"
     bordercolor="#000000"
     borderopacity="0.25"
     inkscape:showpageshadow="2"
     inkscape:pageopacity="0.0"
     inkscape:pagecheckerboard="0"
     inkscape:deskcolor="#d1d1d1"
     inkscape:document-units="mm"
     showgrid="false"
     inkscape:zoom="0.45319914"
     inkscape:cx="-86.054886"
     inkscape:cy="284.64308"
     inkscape:window-width="1440"
     inkscape:window-height="790"
     inkscape:window-x="0"
     inkscape:window-y="25"
     inkscape:window-maximized="1"
     inkscape:current-layer="layer1" /><defs
     id="defs2"><style
       id="style402">.cls-1{fill:#fff;}.cls-2{fill:#4267b2;}.cls-3{fill:#32363b;}</style></defs><g
     inkscape:label="Layer 1"
     inkscape:groupmode="layer"
     id="layer1"
     transform="translate(-112.54338,-25.58535)"><g
       id="g421"
       transform="matrix(0.26458333,0,0,0.26458333,89.889756,11.422216)"><path
         class="cls-1"
         d="m 203.43,135.92 -3.71,1.15 2.34,3.11 A 8.08,8.08 0 0 1 196.94,153 l -3.72,0.62 1.78,3.38 a 8.08,8.08 0 0 1 -6.67,11.79 H 141.6 a 17.35,17.35 0 0 1 -9.93,-3.63 10.64,10.64 0 0 0 -2.59,-1.7 l -1,-0.46 v -43.18 l 4.87,-4.17 16.44,-30.48 a 13.5,13.5 0 0 0 1.93,-8.07 L 150,60 a 7.49,7.49 0 0 1 3.73,-1 c 7.1,0 13.18,11.34 13.18,20.63 a 26.16,26.16 0 0 1 -0.29,3.85 L 163.75,102 h 35.64 a 8.76,8.76 0 0 1 6.17,2.61 7.77,7.77 0 0 1 2.35,5.55 8,8 0 0 1 -3.22,6.4 l -3.31,2.51 3.62,2.05 a 8.11,8.11 0 0 1 -1.57,14.8 z"
         id="path408" /><path
         class="cls-2"
         d="m 88.53,111.32 a 0.17,0.17 0 0 0 -0.17,0.16 V 175 a 0.17,0.17 0 0 0 0.17,0.16 h 36.59 A 0.18,0.18 0 0 0 125.3,175 v -63.52 a 0.18,0.18 0 0 0 -0.18,-0.16 z"
         id="path410" /><path
         class="cls-3"
         d="m 214.6,128.18 a 13.62,13.62 0 0 0 -4.1,-9.71 13.39,13.39 0 0 0 2.89,-8.27 13.23,13.23 0 0 0 -3.94,-9.45 14.29,14.29 0 0 0 -10.06,-4.23 H 170.13 L 172,84.32 a 31.85,31.85 0 0 0 0.35,-4.68 c 0,-12.08 -8.15,-26.11 -18.66,-26.11 a 13,13 0 0 0 -8.34,3 l -1.08,0.9 1.53,20.06 a 8.24,8.24 0 0 1 -0.21,2.53 7.68,7.68 0 0 1 -1,2.33 l -16.07,29.78 -0.6,0.52 a 5.63,5.63 0 0 0 -5.56,-4.81 H 91.25 a 5.63,5.63 0 0 0 -5.63,5.63 v 58.78 a 5.63,5.63 0 0 0 5.63,5.62 h 31.16 a 5.63,5.63 0 0 0 5.63,-5.62 v -3 0 a 22.78,22.78 0 0 0 13.47,4.94 v 0 h 46.81 0.15 a 13.61,13.61 0 0 0 12.53,-16.67 13.57,13.57 0 0 0 7.14,-17.75 13.51,13.51 0 0 0 6.46,-11.59 z m -92,44.09 a 0.17,0.17 0 0 1 -0.15,0.15 h -31.2 a 0.17,0.17 0 0 1 -0.16,-0.15 v -58.78 a 0.16,0.16 0 0 1 0.16,-0.15 h 31.16 a 0.16,0.16 0 0 1 0.15,0.15 v 58.78 z m 80.87,-36.35 -3.71,1.15 2.34,3.11 A 8.08,8.08 0 0 1 196.94,153 l -3.72,0.62 1.78,3.38 a 8.08,8.08 0 0 1 -6.67,11.79 H 141.6 a 17.35,17.35 0 0 1 -9.93,-3.63 10.64,10.64 0 0 0 -2.59,-1.7 l -1,-0.46 v -43.18 l 4.87,-4.17 16.44,-30.48 a 13.5,13.5 0 0 0 1.93,-8.07 L 150,60 a 7.49,7.49 0 0 1 3.73,-1 c 7.1,0 13.18,11.34 13.18,20.63 a 26.16,26.16 0 0 1 -0.29,3.85 L 163.75,102 h 35.64 a 8.76,8.76 0 0 1 6.17,2.61 7.77,7.77 0 0 1 2.35,5.55 8,8 0 0 1 -3.22,6.4 l -3.31,2.51 3.62,2.05 a 8.11,8.11 0 0 1 -1.57,14.8 z"
         id="path412" /></g></g></svg>
